<?xml version="1.0" encoding="utf-8"?>
<!-- Generator: Adobe Illustrator 21.1.0, SVG Export Plug-In . SVG Version: 6.00 Build 0)  -->
<svg version="1.1" id="type" xmlns="http://www.w3.org/2000/svg" xmlns:xlink="http://www.w3.org/1999/xlink" x="0px" y="0px"
	 width="124.22px" height="26.16px" viewBox="0 0 124.22 26.16" enable-background="new 0 0 124.22 26.16" xml:space="preserve">
<g>
	<g>
		<path d="M30.945,12.314c0-0.595,0.482-1.069,1.078-1.069c0.604,0,1.086,0.475,1.086,1.069c0,0.586-0.482,1.061-1.086,1.061
			C31.427,13.375,30.945,12.9,30.945,12.314z M31.091,14.702h1.862v9.069h-1.862V14.702z M37.909,23.772V12.995h-3.811v-1.664h9.544
			v1.664H39.84v10.776H37.909z M51.422,23.772h-1.785v-1.561h-0.043c-0.517,1.086-1.422,1.664-2.811,1.664
			c-1.974,0-3.181-1.276-3.181-3.354v-5.819h1.862v5.457c0,1.379,0.655,2.112,1.939,2.112c1.345,0,2.155-0.931,2.155-2.345v-5.224
			h1.862V23.772z M53.253,14.702h1.775v1.543h0.044c0.543-1.086,1.457-1.646,2.854-1.646c2,0,3.146,1.285,3.146,3.362v5.811h-1.871
			v-5.449c0-1.362-0.629-2.121-1.939-2.121c-1.336,0-2.146,0.948-2.146,2.345v5.225h-1.862V14.702z M70.637,21.108
			c-0.25,1.647-1.854,2.776-3.905,2.776c-2.638,0-4.276-1.768-4.276-4.604c0-2.845,1.647-4.69,4.199-4.69
			c2.509,0,4.086,1.724,4.086,4.475v0.638h-6.405v0.112c0,1.552,0.975,2.569,2.439,2.569c1.035,0,1.846-0.491,2.096-1.276H70.637z
			 M64.344,18.401h4.534c-0.043-1.388-0.931-2.302-2.224-2.302C65.369,16.099,64.439,17.03,64.344,18.401z M75.564,14.599
			c2.009,0,3.448,1.112,3.491,2.715h-1.75c-0.077-0.802-0.759-1.293-1.793-1.293c-1.009,0-1.682,0.465-1.682,1.172
			c0,0.543,0.448,0.905,1.389,1.138l1.525,0.354c1.828,0.439,2.518,1.112,2.518,2.44c0,1.638-1.552,2.759-3.768,2.759
			c-2.138,0-3.577-1.095-3.716-2.75h1.845c0.13,0.871,0.828,1.336,1.957,1.336c1.112,0,1.811-0.457,1.811-1.181
			c0-0.561-0.345-0.862-1.293-1.104l-1.621-0.396c-1.638-0.396-2.465-1.233-2.465-2.492C72.012,15.693,73.451,14.599,75.564,14.599z
			 M85.86,20.306c0.138,1.233,1.336,2.043,2.975,2.043c1.568,0,2.698-0.811,2.698-1.923c0-0.965-0.682-1.543-2.293-1.939
			l-1.612-0.388c-2.285-0.552-3.346-1.621-3.346-3.354c0-2.147,1.871-3.621,4.526-3.621c2.63,0,4.432,1.474,4.492,3.621h-1.88
			c-0.112-1.242-1.138-1.992-2.638-1.992s-2.526,0.759-2.526,1.862c0,0.879,0.655,1.396,2.259,1.793l1.371,0.336
			c2.552,0.604,3.612,1.629,3.612,3.449c0,2.328-1.854,3.785-4.803,3.785c-2.759,0-4.621-1.423-4.741-3.673H85.86z M97.415,12.555
			v2.147h1.724v1.474h-1.724v5c0,0.776,0.345,1.138,1.104,1.138c0.189,0,0.491-0.026,0.612-0.043v1.465
			c-0.207,0.052-0.621,0.086-1.035,0.086c-1.836,0-2.552-0.69-2.552-2.448v-5.199h-1.319v-1.474h1.319v-2.147H97.415z
			 M99.904,19.237c0-2.854,1.682-4.647,4.303-4.647c2.629,0,4.302,1.793,4.302,4.647c0,2.862-1.664,4.647-4.302,4.647
			C101.568,23.884,99.904,22.099,99.904,19.237z M106.612,19.237c0-1.957-0.896-3.112-2.405-3.112s-2.405,1.164-2.405,3.112
			c0,1.965,0.896,3.112,2.405,3.112S106.612,21.202,106.612,19.237z M109.943,14.702h1.775v1.543h0.044
			c0.284-1.026,1.111-1.638,2.181-1.638c0.268,0,0.491,0.035,0.638,0.069v1.741c-0.146-0.06-0.474-0.112-0.836-0.112
			c-1.198,0-1.939,0.81-1.939,2.086v5.379h-1.862V14.702z M123.121,21.108c-0.25,1.647-1.854,2.776-3.905,2.776
			c-2.638,0-4.276-1.768-4.276-4.604c0-2.845,1.647-4.69,4.199-4.69c2.509,0,4.086,1.724,4.086,4.475v0.638h-6.405v0.112
			c0,1.552,0.975,2.569,2.439,2.569c1.035,0,1.846-0.491,2.096-1.276H123.121z M116.828,18.401h4.534
			c-0.043-1.388-0.931-2.302-2.224-2.302C117.854,16.099,116.923,17.03,116.828,18.401z"/>
	</g>
	<g>
		<g>
			<defs>
				<rect id="SVGID_1_" x="0" width="25.164" height="25.164"/>
			</defs>
			<clipPath id="SVGID_2_">
				<use xlink:href="#SVGID_1_"  overflow="visible"/>
			</clipPath>
			<g clip-path="url(#SVGID_2_)">
				<defs>
					<path id="SVGID_3_" d="M7.72,0c-0.25,0-0.5,0-0.75,0.002C6.717,0.003,6.464,0.006,6.211,0.013
						C5.659,0.028,5.103,0.06,4.557,0.158C4.004,0.258,3.489,0.42,2.986,0.676C2.492,0.928,2.04,1.256,1.648,1.648
						C1.256,2.04,0.928,2.492,0.676,2.986C0.42,3.489,0.258,4.004,0.158,4.558C0.06,5.103,0.028,5.659,0.013,6.211
						C0.006,6.464,0.003,6.717,0.002,6.97C0,7.211,0,7.452,0,7.693v0.178v9.421v0.178c0,0.241,0,0.482,0.002,0.723
						c0.002,0.253,0.004,0.506,0.011,0.759c0.015,0.551,0.047,1.107,0.145,1.653c0.099,0.554,0.262,1.069,0.518,1.572
						c0.252,0.494,0.58,0.946,0.972,1.338c0.392,0.392,0.844,0.721,1.338,0.972c0.503,0.256,1.018,0.418,1.571,0.518
						c0.545,0.098,1.102,0.131,1.653,0.145c0.253,0.007,0.506,0.01,0.759,0.011c0.25,0.002,0.5,0.002,0.75,0.002h0.152h9.421h0.152
						c0.25,0,0.5,0,0.75-0.002c0.253-0.002,0.506-0.004,0.759-0.011c0.552-0.015,1.108-0.047,1.653-0.145
						c0.553-0.099,1.068-0.262,1.571-0.518c0.494-0.252,0.946-0.58,1.338-0.972c0.392-0.392,0.721-0.844,0.972-1.338
						c0.256-0.503,0.418-1.018,0.518-1.572c0.098-0.545,0.13-1.101,0.145-1.653c0.007-0.253,0.01-0.506,0.011-0.759
						c0.001-0.241,0.002-0.483,0.002-0.724V7.694c0-0.241,0-0.483-0.002-0.724c-0.002-0.253-0.004-0.506-0.011-0.759
						c-0.015-0.551-0.047-1.107-0.145-1.653c-0.099-0.554-0.262-1.069-0.518-1.572c-0.252-0.494-0.58-0.946-0.972-1.338
						c-0.392-0.392-0.844-0.721-1.338-0.972c-0.503-0.256-1.018-0.418-1.571-0.518c-0.545-0.098-1.102-0.131-1.653-0.145
						c-0.253-0.007-0.506-0.01-0.759-0.011C17.944,0,17.694,0,17.444,0H7.72z"/>
				</defs>
				<clipPath id="SVGID_4_">
					<use xlink:href="#SVGID_3_"  overflow="visible"/>
				</clipPath>
				
					<linearGradient id="SVGID_5_" gradientUnits="userSpaceOnUse" x1="-1245.5753" y1="-853.4346" x2="-1245.5491" y2="-853.4346" gradientTransform="matrix(0 961.0199 961.0199 0 820180.1875 1197022.625)">
					<stop  offset="0" style="stop-color:#EF4DB7"/>
					<stop  offset="1" style="stop-color:#C643FD"/>
				</linearGradient>
				<rect clip-path="url(#SVGID_4_)" fill="url(#SVGID_5_)" width="25.164" height="25.164"/>
			</g>
			<g clip-path="url(#SVGID_2_)">
				<defs>
					<path id="SVGID_6_" d="M12.425,3.198c-0.05,0.031-0.094,0.074-0.137,0.13c-0.007,0.009-0.014,0.019-0.021,0.028
						c-0.057,0.081-0.102,0.169-0.137,0.261c-0.104,0.269-0.2,0.541-0.289,0.815l-1.682,5.176h4.836l-1.682-5.176
						c-0.089-0.274-0.186-0.546-0.289-0.815c-0.035-0.092-0.08-0.181-0.137-0.261c-0.007-0.01-0.014-0.019-0.021-0.028
						c-0.043-0.056-0.087-0.1-0.137-0.13c-0.049-0.03-0.1-0.045-0.152-0.045C12.525,3.153,12.474,3.168,12.425,3.198"/>
				</defs>
				<clipPath id="SVGID_7_">
					<use xlink:href="#SVGID_6_"  overflow="visible"/>
				</clipPath>
				
					<radialGradient id="SVGID_8_" cx="-1245.7582" cy="-855.8912" r="0.0262" gradientTransform="matrix(717.8253 0 0 -717.8253 894237.3125 -614363.3125)" gradientUnits="userSpaceOnUse">
					<stop  offset="0" style="stop-color:#FBE3F8"/>
					<stop  offset="0.745" style="stop-color:#FBE3F8"/>
					<stop  offset="0.8082" style="stop-color:#FADEF6"/>
					<stop  offset="0.8798" style="stop-color:#F9D1F0"/>
					<stop  offset="0.9554" style="stop-color:#F6BAE7"/>
					<stop  offset="0.98" style="stop-color:#F5B1E3"/>
					<stop  offset="1" style="stop-color:#F5B1E3"/>
				</radialGradient>
				<rect x="10.159" y="3.153" clip-path="url(#SVGID_7_)" fill="url(#SVGID_8_)" width="4.836" height="6.456"/>
			</g>
			<g clip-path="url(#SVGID_2_)">
				<defs>
					<path id="SVGID_9_" d="M12.577,17.05l4.403,3.198c0.233,0.17,0.471,0.333,0.714,0.49c0.083,0.054,0.171,0.099,0.264,0.131
						c0.011,0.004,0.022,0.007,0.034,0.011c0.068,0.02,0.129,0.029,0.188,0.025c0.057-0.005,0.108-0.022,0.149-0.053
						c0.042-0.03,0.074-0.073,0.096-0.126c0.022-0.054,0.033-0.115,0.035-0.186c0-0.012,0-0.023,0-0.035
						c-0.001-0.099-0.017-0.196-0.043-0.292c-0.074-0.279-0.156-0.556-0.245-0.83l-1.682-5.175L12.577,17.05z"/>
				</defs>
				<clipPath id="SVGID_10_">
					<use xlink:href="#SVGID_9_"  overflow="visible"/>
				</clipPath>
				
					<radialGradient id="SVGID_11_" cx="-1245.7582" cy="-855.8912" r="0.0262" gradientTransform="matrix(717.8253 0 0 -717.8253 894237.3125 -614363.3125)" gradientUnits="userSpaceOnUse">
					<stop  offset="0" style="stop-color:#F9E3FB"/>
					<stop  offset="0.7459" style="stop-color:#F9E3FB"/>
					<stop  offset="0.8097" style="stop-color:#F8DEFB"/>
					<stop  offset="0.8826" style="stop-color:#F3D0FA"/>
					<stop  offset="0.9599" style="stop-color:#ECBAF9"/>
					<stop  offset="0.981" style="stop-color:#EAB2F9"/>
					<stop  offset="1" style="stop-color:#EAB2F9"/>
				</radialGradient>
				<rect x="12.577" y="14.208" clip-path="url(#SVGID_10_)" fill="url(#SVGID_11_)" width="5.882" height="6.701"/>
			</g>
			<g clip-path="url(#SVGID_2_)">
				<defs>
					<path id="SVGID_12_" d="M4.717,9.609c-0.288,0-0.577,0.008-0.865,0.023c-0.098,0.005-0.196,0.02-0.291,0.05
						C3.55,9.685,3.539,9.689,3.528,9.693c-0.067,0.023-0.122,0.052-0.166,0.09c-0.044,0.037-0.074,0.081-0.09,0.13
						c-0.016,0.049-0.017,0.102-0.004,0.158c0.014,0.057,0.041,0.113,0.081,0.171c0.007,0.01,0.013,0.019,0.021,0.029
						c0.059,0.079,0.129,0.149,0.206,0.211c0.224,0.182,0.453,0.358,0.686,0.527l4.402,3.199l1.494-4.599H4.717z"/>
				</defs>
				<clipPath id="SVGID_13_">
					<use xlink:href="#SVGID_12_"  overflow="visible"/>
				</clipPath>
				
					<radialGradient id="SVGID_14_" cx="-1245.8557" cy="-856.0994" r="0.0262" gradientTransform="matrix(978.9961 0 0 -978.9961 1219679.125 -838118)" gradientUnits="userSpaceOnUse">
					<stop  offset="0" style="stop-color:#FAE1F8"/>
					<stop  offset="0.6" style="stop-color:#FAE1F8"/>
					<stop  offset="0.85" style="stop-color:#F7D6F7"/>
					<stop  offset="1" style="stop-color:#F7D6F7"/>
				</radialGradient>
				<rect x="3.254" y="9.609" clip-path="url(#SVGID_13_)" fill="url(#SVGID_14_)" width="6.904" height="4.599"/>
			</g>
			<g clip-path="url(#SVGID_2_)">
				<defs>
					<path id="SVGID_15_" d="M6.983,19.383c-0.089,0.274-0.171,0.551-0.245,0.83c-0.025,0.095-0.041,0.193-0.043,0.292
						c0,0.012,0,0.024,0,0.035c0.002,0.071,0.012,0.132,0.035,0.186c0.022,0.053,0.054,0.096,0.096,0.126
						c0.042,0.03,0.092,0.048,0.149,0.053c0.058,0.005,0.12-0.004,0.188-0.025c0.011-0.003,0.022-0.007,0.034-0.011
						c0.093-0.032,0.182-0.077,0.264-0.131c0.242-0.157,0.48-0.32,0.713-0.49l4.403-3.199l-2.483-1.804l-1.43-1.039L6.983,19.383z"
						/>
				</defs>
				<clipPath id="SVGID_16_">
					<use xlink:href="#SVGID_15_"  overflow="visible"/>
				</clipPath>
				
					<radialGradient id="SVGID_17_" cx="-1246.7351" cy="-855.4244" r="0.0262" gradientTransform="matrix(696.9604 0 0 -696.9604 868944.875 -596170.1875)" gradientUnits="userSpaceOnUse">
					<stop  offset="0" style="stop-color:#FAE9FC"/>
					<stop  offset="0.669" style="stop-color:#FAE9FC"/>
					<stop  offset="0.8118" style="stop-color:#F8DEFA"/>
					<stop  offset="0.91" style="stop-color:#F6D4F8"/>
					<stop  offset="1" style="stop-color:#F6D4F8"/>
				</radialGradient>
				<rect x="6.695" y="14.208" clip-path="url(#SVGID_16_)" fill="url(#SVGID_17_)" width="5.882" height="6.701"/>
			</g>
			<g clip-path="url(#SVGID_2_)">
				<defs>
					<path id="SVGID_18_" d="M14.995,9.609l1.494,4.599l4.403-3.199c0.233-0.17,0.462-0.345,0.686-0.527
						c0.077-0.062,0.147-0.132,0.206-0.211c0.007-0.01,0.014-0.019,0.021-0.029c0.04-0.058,0.068-0.114,0.081-0.171
						c0.013-0.056,0.012-0.109-0.004-0.158c-0.016-0.049-0.046-0.093-0.09-0.13c-0.044-0.038-0.1-0.067-0.166-0.09
						c-0.011-0.004-0.022-0.008-0.033-0.011c-0.094-0.029-0.192-0.044-0.291-0.05c-0.288-0.016-0.576-0.023-0.865-0.023
						L14.995,9.609L14.995,9.609z"/>
				</defs>
				<clipPath id="SVGID_19_">
					<use xlink:href="#SVGID_18_"  overflow="visible"/>
				</clipPath>
				
					<radialGradient id="SVGID_20_" cx="-1246.7351" cy="-855.4244" r="0.0262" gradientTransform="matrix(696.9604 0 0 -696.9604 868944.875 -596170.1875)" gradientUnits="userSpaceOnUse">
					<stop  offset="0" style="stop-color:#FAE9FB"/>
					<stop  offset="0.68" style="stop-color:#FAE9FB"/>
					<stop  offset="0.8132" style="stop-color:#F8DEF8"/>
					<stop  offset="0.98" style="stop-color:#F5CAF2"/>
					<stop  offset="1" style="stop-color:#F5CAF2"/>
				</radialGradient>
				<rect x="14.994" y="9.608" clip-path="url(#SVGID_19_)" fill="url(#SVGID_20_)" width="6.905" height="4.599"/>
			</g>
			<polygon clip-path="url(#SVGID_2_)" fill="#FFFFFF" points="10.159,9.609 8.664,14.208 10.094,15.246 12.577,17.05 
				16.489,14.208 14.995,9.609 			"/>
		</g>
	</g>
	<g id="XMLID_98_">
		<g>
			<path d="M33.443,7.683c-1.716,0-2.799-1.221-2.799-3.177c0-1.93,1.095-3.172,2.791-3.172c1.376,0,2.375,0.781,2.581,2.006h-0.944
				c-0.235-0.73-0.81-1.128-1.637-1.128c-1.12,0-1.83,0.885-1.83,2.287c0,1.427,0.713,2.308,1.851,2.308
				c0.99,0,1.67-0.604,1.679-1.502v-0.13h-1.561V4.385h2.484V5.14C36.057,6.688,35.029,7.683,33.443,7.683z"/>
			<path d="M41.228,6.302c-0.206,0.818-0.936,1.322-1.98,1.322c-1.309,0-2.11-0.898-2.11-2.358c0-1.46,0.818-2.388,2.106-2.388
				c1.271,0,2.039,0.869,2.039,2.304v0.314h-3.227v0.051c0.029,0.801,0.495,1.309,1.217,1.309c0.545,0,0.919-0.197,1.087-0.554
				H41.228z M38.056,4.829h2.308c-0.021-0.718-0.458-1.183-1.125-1.183S38.106,4.116,38.056,4.829z"/>
			<path d="M43.706,1.829v1.158h0.991v0.76h-0.991v2.35c0,0.479,0.197,0.688,0.646,0.688c0.138,0,0.218-0.008,0.344-0.021v0.751
				c-0.147,0.025-0.315,0.046-0.491,0.046c-1.003,0-1.401-0.353-1.401-1.234V3.747h-0.726v-0.76h0.726V1.829H43.706z"/>
			<path d="M48.239,1.615c0-0.314,0.248-0.554,0.583-0.554c0.335,0,0.583,0.239,0.583,0.554c0,0.311-0.248,0.55-0.583,0.55
				C48.486,2.165,48.239,1.926,48.239,1.615z M48.373,2.966h0.898v4.57h-0.898V2.966z"/>
			<path d="M51.943,1.829v1.158h0.991v0.76h-0.991v2.35c0,0.479,0.197,0.688,0.646,0.688c0.139,0,0.219-0.008,0.345-0.021v0.751
				c-0.147,0.025-0.315,0.046-0.491,0.046c-1.003,0-1.401-0.353-1.401-1.234V3.747h-0.727v-0.76h0.727V1.829H51.943z"/>
			<path d="M56.367,5.249c0-1.473,0.822-2.371,2.157-2.371c1.33,0,2.152,0.898,2.152,2.371c0,1.481-0.818,2.375-2.152,2.375
				C57.185,7.624,56.367,6.73,56.367,5.249z M59.749,5.249c0-0.99-0.444-1.569-1.225-1.569c-0.785,0-1.226,0.579-1.226,1.569
				c0,0.999,0.44,1.574,1.226,1.574C59.304,6.823,59.749,6.243,59.749,5.249z"/>
			<path d="M61.88,2.966h0.869v0.726h0.066c0.223-0.508,0.676-0.814,1.364-0.814c1.02,0,1.582,0.613,1.582,1.699v2.958h-0.902V4.804
				c0-0.734-0.319-1.099-0.986-1.099c-0.667,0-1.091,0.445-1.091,1.158v2.673H61.88V2.966z"/>
		</g>
	</g>
</g>
<g>
</g>
<g>
</g>
<g>
</g>
<g>
</g>
<g>
</g>
<g>
</g>
</svg>
