<?xml version="1.0" standalone="no"?>
<!DOCTYPE svg PUBLIC "-//W3C//DTD SVG 20010904//EN"
 "http://www.w3.org/TR/2001/REC-SVG-20010904/DTD/svg10.dtd">
<svg version="1.0" xmlns="http://www.w3.org/2000/svg"
 width="160.000000pt" height="160.000000pt" viewBox="0 0 160.000000 160.000000"
 preserveAspectRatio="xMidYMid meet">
<metadata>
Created by potrace 1.11, written by Peter Selinger 2001-2013
</metadata>
<g transform="translate(0.000000,160.000000) scale(0.100000,-0.100000)"
fill="#000000" stroke="none">
<path d="M320 1479 c-30 -11 -60 -21 -66 -22 -15 -4 -83 -54 -109 -81 -114
-117 -154 -281 -109 -441 2 -5 6 -23 9 -39 3 -16 9 -34 13 -40 3 -6 7 -16 8
-22 5 -35 117 -235 136 -242 4 -2 8 -8 8 -14 0 -5 6 -15 13 -23 6 -7 27 -31
46 -54 45 -56 147 -158 201 -201 24 -19 48 -40 54 -45 25 -23 135 -91 199
-123 63 -31 71 -32 105 -21 20 7 59 25 87 41 27 16 60 34 73 40 12 6 22 15 22
20 0 4 7 8 15 8 8 0 15 4 15 8 0 5 9 13 19 18 51 24 230 197 304 294 23 30 45
57 50 58 4 2 7 8 7 14 0 5 8 22 18 36 44 63 106 195 117 252 1 3 7 32 14 65
35 158 -6 303 -119 414 -49 49 -135 98 -193 109 -39 9 -183 8 -217 0 -68 -17
-160 -73 -213 -131 l-27 -31 -34 36 c-46 49 -111 91 -176 115 -75 28 -195 29
-270 2z"/>
</g>
</svg>
